/* XPM */
static char * star48_xpm[] = {
"48 48 343 2",
"  	c None",
". 	c #7B7BAD",
"+ 	c #7E7EAB",
"@ 	c #648393",
"# 	c #3C9265",
"$ 	c #2C9853",
"% 	c #2A9951",
"& 	c #7D9888",
"* 	c #7A9886",
"= 	c #3D9266",
"- 	c #658394",
"; 	c #4C8C77",
"> 	c #18A03C",
", 	c #17A03B",
"' 	c #219F42",
") 	c #969997",
"! 	c #959996",
"~ 	c #1F9F41",
"{ 	c #4E8C79",
"] 	c #60858E",
"^ 	c #489D5F",
"/ 	c #9D9D9D",
"( 	c #9C9C9C",
"_ 	c #459D5C",
": 	c #628490",
"< 	c #35955D",
"[ 	c #739B7D",
"} 	c #AEAEAE",
"| 	c #ADADAD",
"1 	c #6F9B7B",
"2 	c #36945E",
"3 	c #239B49",
"4 	c #C1C1C1",
"5 	c #C0C0C0",
"6 	c #949995",
"7 	c #1DA040",
"8 	c #239C48",
"9 	c #219C46",
"0 	c #469D5D",
"a 	c #D2D2D2",
"b 	c #429E5A",
"c 	c #209D45",
"d 	c #709B7C",
"e 	c #B0B0B0",
"f 	c #D7D7D7",
"g 	c #AFAFAF",
"h 	c #6D9B79",
"i 	c #949996",
"j 	c #C7C7C7",
"k 	c #DADADA",
"l 	c #C5C5C5",
"m 	c #939994",
"n 	c #1CA03E",
"o 	c #439D5B",
"p 	c #DCDCDC",
"q 	c #DEDEDE",
"r 	c #DBDBDB",
"s 	c #409E59",
"t 	c #6E9B7A",
"u 	c #B3B3B3",
"v 	c #E1E1E1",
"w 	c #B1B1B1",
"x 	c #6A9B77",
"y 	c #1CA03F",
"z 	c #939995",
"A 	c #CCCCCC",
"B 	c #E4E4E4",
"C 	c #CACACA",
"D 	c #919993",
"E 	c #1BA03E",
"F 	c #419E59",
"G 	c #DDDDDD",
"H 	c #9B9B9B",
"I 	c #3D9E57",
"J 	c #6B9B78",
"K 	c #D3D3D3",
"L 	c #D1D1D1",
"M 	c #D0D0D0",
"N 	c #ABABAB",
"O 	c #689C75",
"P 	c #919994",
"Q 	c #B8B8B8",
"R 	c #C4C4C4",
"S 	c #C3C3C3",
"T 	c #C6C6C6",
"U 	c #B6B6B6",
"V 	c #8F9992",
"W 	c #1AA03D",
"X 	c #3E9E57",
"Y 	c #9A9A9A",
"Z 	c #BBBBBB",
"` 	c #BABABA",
" .	c #B7B7B7",
"..	c #B9B9B9",
"+.	c #3B9E55",
"@.	c #92929D",
"#.	c #8A998F",
"$.	c #899A8D",
"%.	c #A1A1A1",
"&.	c #ACACAC",
"*.	c #A0A0A0",
"=.	c #909993",
"-.	c #91919E",
";.	c #8787A5",
">.	c #969998",
",.	c #BDBDBD",
"'.	c #C8C8C8",
").	c #C9C9C9",
"!.	c #BFBFBF",
"~.	c #B5B5B5",
"{.	c #A8A8A8",
"].	c #A4A4A4",
"^.	c #A5A5A5",
"/.	c #9F9F9F",
"(.	c #9E9E9E",
"_.	c #A3A3A3",
":.	c #A6A6A6",
"<.	c #AAAAAA",
"[.	c #959997",
"}.	c #8686A5",
"|.	c #379B57",
"1.	c #829A88",
"2.	c #DFDFDF",
"3.	c #E2E2E2",
"4.	c #E0E0E0",
"5.	c #CECECE",
"6.	c #A7A7A7",
"7.	c #989898",
"8.	c #949494",
"9.	c #929292",
"0.	c #919191",
"a.	c #939393",
"b.	c #979797",
"c.	c #B2B2B2",
"d.	c #C2C2C2",
"e.	c #CBCBCB",
"f.	c #E3E3E3",
"g.	c #809A87",
"h.	c #359B54",
"i.	c #639C72",
"j.	c #999A9A",
"k.	c #D8D8D8",
"l.	c #BCBCBC",
"m.	c #969696",
"n.	c #8C8C8C",
"o.	c #898989",
"p.	c #868686",
"q.	c #848484",
"r.	c #858585",
"s.	c #878787",
"t.	c #8B8B8B",
"u.	c #8F8F8F",
"v.	c #D4D4D4",
"w.	c #999A99",
"x.	c #609C70",
"y.	c #3F9E58",
"z.	c #999999",
"A.	c #808080",
"B.	c #7C7C7C",
"C.	c #7A7A7A",
"D.	c #787878",
"E.	c #777777",
"F.	c #797979",
"G.	c #7B7B7B",
"H.	c #7E7E7E",
"I.	c #838383",
"J.	c #CDCDCD",
"K.	c #CFCFCF",
"L.	c #A9A9A9",
"M.	c #8E9A91",
"N.	c #259F45",
"O.	c #789B81",
"P.	c #909090",
"Q.	c #888888",
"R.	c #747474",
"S.	c #707070",
"T.	c #6D6D6D",
"U.	c #6B6B6B",
"V.	c #6C6C6C",
"W.	c #6F6F6F",
"X.	c #737373",
"Y.	c #8D8D8D",
"Z.	c #959595",
"`.	c #759B7F",
" +	c #249F44",
".+	c #19A03C",
"++	c #559C68",
"@+	c #767676",
"#+	c #696969",
"$+	c #646464",
"%+	c #606060",
"&+	c #5F5F5F",
"*+	c #5E5E5E",
"=+	c #626262",
"-+	c #676767",
";+	c #539D66",
">+	c #349E50",
",+	c #889A8C",
"'+	c #757575",
")+	c #585858",
"!+	c #545454",
"~+	c #525252",
"{+	c #515151",
"]+	c #535353",
"^+	c #575757",
"/+	c #5B5B5B",
"(+	c #717171",
"_+	c #8E8E8E",
":+	c #869A8B",
"<+	c #329E4F",
"[+	c #6C9B78",
"}+	c #818181",
"|+	c #636363",
"1+	c #5A5A5A",
"2+	c #4D4D4D",
"3+	c #484848",
"4+	c #454545",
"5+	c #474747",
"6+	c #4B4B4B",
"7+	c #505050",
"8+	c #7D7D7D",
"9+	c #699B76",
"0+	c #1EA040",
"a+	c #489D5E",
"b+	c #727272",
"c+	c #656565",
"d+	c #494949",
"e+	c #424242",
"f+	c #3C3C3C",
"g+	c #393939",
"h+	c #3B3B3B",
"i+	c #3F3F3F",
"j+	c #464646",
"k+	c #4E4E4E",
"l+	c #616161",
"m+	c #929994",
"n+	c #2C9F4A",
"o+	c #373737",
"p+	c #303030",
"q+	c #2D2D2D",
"r+	c #2C2C2C",
"s+	c #2F2F2F",
"t+	c #343434",
"u+	c #4F4F4F",
"v+	c #2A9F48",
"w+	c #6A6A6A",
"x+	c #595959",
"y+	c #2E2E2E",
"z+	c #252525",
"A+	c #202020",
"B+	c #1F1F1F",
"C+	c #232323",
"D+	c #2A2A2A",
"E+	c #3E3E3E",
"F+	c #309E4D",
"G+	c #5E9C6E",
"H+	c #555555",
"I+	c #3D3D3D",
"J+	c #313131",
"K+	c #262626",
"L+	c #1C1C1C",
"M+	c #141414",
"N+	c #131313",
"O+	c #191919",
"P+	c #222222",
"Q+	c #5D5D5D",
"R+	c #5A9C6C",
"S+	c #889A8D",
"T+	c #7F7F7F",
"U+	c #161616",
"V+	c #0B0B0B",
"W+	c #080808",
"X+	c #111111",
"Y+	c #1D1D1D",
"Z+	c #363636",
"`+	c #5C5C5C",
" @	c #859A8A",
".@	c #319E4E",
"+@	c #121212",
"@@	c #434343",
"#@	c #6E6E6E",
"$@	c #2D9F4B",
"%@	c #5B9C6C",
"&@	c #565656",
"*@	c #323232",
"=@	c #272727",
"-@	c #589C6A",
";@	c #859A8B",
">@	c #383838",
",@	c #969797",
"'@	c #4A4A4A",
")@	c #2E9F4C",
"!@	c #429D5A",
"~@	c #666666",
"{@	c #2B9F49",
"]@	c #599C6A",
"^@	c #279F46",
"/@	c #7A9B83",
"(@	c #559D68",
"_@	c #839A89",
":@	c #979997",
"<@	c #879A8C",
"[@	c #369E51",
"}@	c #989998",
"|@	c #299F48",
"1@	c #569C68",
"2@	c #1FA041",
"3@	c #209F41",
"4@	c #529D66",
"5@	c #249B4A",
"6@	c #479D5E",
"7@	c #4A9D60",
"8@	c #7D9A85",
"9@	c #389461",
"0@	c #7E9A85",
"a@	c #2A9F49",
"b@	c #399362",
"c@	c #189F3D",
"d@	c #5D9C6E",
"e@	c #5F9C6F",
"f@	c #509D64",
"g@	c #199F3D",
"h@	c #668395",
"i@	c #538A7F",
"j@	c #7A9B82",
"k@	c #8C9A8F",
"l@	c #3A9E54",
"m@	c #3C9E56",
"n@	c #8D9A90",
"o@	c #769B80",
"p@	c #199F3E",
"q@	c #558981",
"r@	c #698199",
"s@	c #41906A",
"t@	c #2E9755",
"u@	c #2B9852",
"v@	c #469766",
"w@	c #36985A",
"x@	c #37985B",
"y@	c #459765",
"z@	c #2E9756",
"A@	c #41906B",
"B@	c #6B819A",
"          . . . . . . . . . . . . . . . . . . . . . . . . . . . . . . . . . . . . . .           ",
"      . . . . . . . . . . . . . . . . . . . . . . . . . . . . . . . . . . . . . . . . . .       ",
"    . . . . . . . . . . . . . . . . . . . . . + + . . . . . . . . . . . . . . . . . . . . .     ",
"  . . . . @ # $ % % % % % % % % % % % % % % % & * % % % % % % % % % % % % % % % $ = - . . . .   ",
"  . . . ; > , , , , , , , , , , , , , , , , ' ) ! ~ , , , , , , , , , , , , , , , , > { . . .   ",
". . . ] > , , , , , , , , , , , , , , , , , ^ / ( _ , , , , , , , , , , , , , , , , , > : . . . ",
". . . < , , , , , , , , , , , , , , , , , , [ } | 1 , , , , , , , , , , , , , , , , , , 2 . . . ",
". . . 3 , , , , , , , , , , , , , , , , , ~ ! 4 5 6 7 , , , , , , , , , , , , , , , , , 8 . . . ",
". . . 9 , , , , , , , , , , , , , , , , , 0 / a a ( b , , , , , , , , , , , , , , , , , c . . . ",
". . . 9 , , , , , , , , , , , , , , , , , d e f f g h , , , , , , , , , , , , , , , , , c . . . ",
". . . 9 , , , , , , , , , , , , , , , , 7 i j k k l m n , , , , , , , , , , , , , , , , c . . . ",
". . . 9 , , , , , , , , , , , , , , , , o / p q q r ( s , , , , , , , , , , , , , , , , c . . . ",
". . . 9 , , , , , , , , , , , , , , , , t u v v v v w x , , , , , , , , , , , , , , , , c . . . ",
". . . 9 , , , , , , , , , , , , , , , y z A B B B B C D E , , , , , , , , , , , , , , , c . . . ",
". . . 9 , , , , , , , , , , , , , , , F ( p q G G q r H I , , , , , , , , , , , , , , , c . . . ",
". . . 9 , , , , , , , , , , , , , , , J | K L M M L a N O , , , , , , , , , , , , , , , c . . . ",
". . . 9 , , , , , , , , , , , , , , E P Q j l R S R T U V W , , , , , , , , , , , , , , c . . . ",
". . . 9 , , , , , , , , , , , , , , X Y Z ` Q  . . .....Y +., , , , , , , , , , , , , , c . . . ",
". . @.#.$.$.$.$.$.$.$.$.$.$.$.$.$.$.D %.e | &.N N N | g *.=.$.$.$.$.$.$.$.$.$.$.$.$.$.$.#.-.. . ",
". . ;.>./ ,.S l T '.).l !.` ~.e &.{.].^.].%./.(.(.(.*._.]._.:.<.g u Q ,.S '.'.j l R ,./ [.}.. . ",
". . . |.1.%.A 2.3.B 4.f 5.l ,.~.} 6.%.( 7.8.9.0.0.9.a.b.H /.^.N c.` d.e.K G B f.4.A *.g.h.. . . ",
". . . 9 n i.j.,.f.3.k.5.l l.u N _.( m.0.n.o.p.q.q.r.s.t.u.8.Y %.{.e ..d.e.v.2.f.l.w.x.E c . . . ",
". . . 9 , , y.V N K L j ,.u <.%.z.9.t.r.A.B.C.D.E.F.G.H.I.o.u.m.(.6.e ..S J.K.L.M.I , , c . . . ",
". . . 9 , , , N.O./ ..!.~.N %.7.P.Q.A.C.R.S.T.U.U.V.W.X.D.H.r.Y.Z.(.6.w Z U ( `. +, , , c . . . ",
". . . 9 , , , , .+++) ^.| _.z.P.s.H.@+W.#+$+%+&+*+%+=+-+T.X.G.I.n.m.*.L._.) ;+> , , , , c . . . ",
". . . 9 , , , , , , >+,+H ( 9.Q.H.'+V.$+*+)+!+~+{+]+^+/+=+#+(+C.q._+7.Y :+<+, , , , , , c . . . ",
". . . 9 , , , , , , , ~ [+z.0.}+@+V.|+1+]+2+3+4+4+5+6+7+)+%+#+X.8+u.z.9+0+, , , , , , , c . . . ",
". . . 9 , , , , , , , , , a+m P.b+c+1+{+d+e+f+g+g+h+i+j+k+^+l+W.u.m+_ , , , , , , , , , c . . . ",
". . . 9 , , , , , , , , , , n+) C.*+]+d+i+o+p+q+r+s+t+f+4+u+1+F.! v+, , , , , , , , , , c . . . ",
". . . 9 , , , , , , , , , , >+7.w+x+2+e+o+y+z+A+B+C+D+t+E+d+!+-+z.F+, , , , , , , , , , c . . . ",
". . . 9 , , , , , , , , , , G+_+=+H+d+I+J+K+L+M+N+O+P+q+g+4+{+Q+_+R+, , , , , , , , , , c . . . ",
". . . 9 , , , , , , , , , , S+T+%+!+5+h+y+P+U+V+W+X+Y+D+Z+e+u+`+8+ @, , , , , , , , , , c . . . ",
". . . 9 , , , , , , , , , .@z.(+%+!+5+h+y+P+U+V+W++@Y+D+Z+@@u+`+#@z.$@, , , , , , , , , c . . . ",
". . . 9 , , , , , , , , , %@0.#@=+&@d+I+*@=@L+J+y+O+C+q+g+4+{+Q+w+0.-@, , , , , , , , , c . . . ",
". . . 9 , , , , , , , , , ;@Q.(+c+x+2+e+>@p+&+,@m./+r+t+i+'@H+l+T.s.1., , , , , , , , , c . . . ",
". . . 9 , , , , , , , , )@z.I.'+w+&+!+d+6+}+V s !@=.T+5+j+7+/+~@(+A.z.{@, , , , , , , , c . . . ",
". . . 9 , , , , , , , , ]@b.p.G.S.c+/+#+a.O.N., , ^@/@a.~@^+l+V.E.}+m.(@, , , , , , , , c . . . ",
". . . 9 , , , , , , , , _@b.n.}+E.W.q.) ++> , , , , .+-@:@}+U.X.8+Q.Z.g., , , , , , , , c . . . ",
". . . 9 , , , , , , , n+z.( 9.Q.I.a.<@>+, , , , , , , , [@$.9.A.r.u.7.}@|@, , , , , , , c . . . ",
". . . 9 , , , , , , , 1@( ].Y 8.7.J 2@, , , , , , , , , , 3@h 7.9.m.*.H 4@, , , , , , , c . . . ",
". . . 5@, , , , , , , g.:.<.H m+6@, , , , , , , , , , , , , , 7@z H 6.].8@, , , , , , , 3 . . . ",
". . . 9@, , , , , , v+}@&.H 0@a@, , , , , , , , , , , , , , , , n+g.H <.}@^@, , , , , , b@. . . ",
". . . - c@, , , , , ;+z.}@d@W , , , , , , , , , , , , , , , , , , E e@z.z.f@, , , , , g@h@. . . ",
"  . . . i@g@, , , , j@k@l@, , , , , , , , , , , , , , , , , , , , , , m@n@o@, , , , p@q@. . .   ",
"  . . . . r@s@t@u@u@v@w@u@u@u@u@u@u@u@u@u@u@u@u@u@u@u@u@u@u@u@u@u@u@u@u@x@y@u@u@z@A@B@. . . .   ",
"    . . . . . . . . . . . . . . . . . . . . . . . . . . . . . . . . . . . . . . . . . . . .     ",
"      . . . . . . . . . . . . . . . . . . . . . . . . . . . . . . . . . . . . . . . . . .       ",
"          . . . . . . . . . . . . . . . . . . . . . . . . . . . . . . . . . . . . . .           "};
